<svg width="11" height="15" viewBox="0 0 11 15" fill="none" xmlns="http://www.w3.org/2000/svg">
<path d="M10.4399 0.185425H6.97675C6.66742 0.185425 6.41667 0.43489 6.41667 0.742621V14.2193C6.41667 14.527 6.66742 14.7765 6.97675 14.7765H10.4399C10.7492 14.7765 11 14.527 11 14.2193V0.742621C11 0.43489 10.7492 0.185425 10.4399 0.185425Z" fill="white"/>
<path d="M4.02323 0.185425H0.560081C0.250757 0.185425 0 0.43489 0 0.742621V14.2193C0 14.527 0.250757 14.7765 0.560081 14.7765H4.02323C4.33256 14.7765 4.58331 14.527 4.58331 14.2193V0.742621C4.58331 0.43489 4.33256 0.185425 4.02323 0.185425Z" fill="white"/>
</svg>
